#define icon_16_width 16
#define icon_16_height 16
static unsigned char icon_16_bits[] = {
   0xff, 0xff, 0xff, 0xff, 0xff, 0xff, 0xc0, 0xff, 0xc0, 0xff, 0xe4, 0x9c,
   0x80, 0x9c, 0x80, 0x9c, 0x9c, 0x80, 0x80, 0x80, 0x80, 0x9c, 0xff, 0x9c,
   0xff, 0x9c, 0xff, 0xff, 0xff, 0xff, 0xff, 0xff};
