#define 29013_e9ac1d2793b5a23584566aed48f4de55d28412ef94ed668c723399a0d464c876-0_width 16
#define 29013_e9ac1d2793b5a23584566aed48f4de55d28412ef94ed668c723399a0d464c876-0_height 16
static char 29013_e9ac1d2793b5a23584566aed48f4de55d28412ef94ed668c723399a0d464c876-0_bits[] = {
  0x00, 0x00, 0x00, 0x00, 0x00, 0x00, 0x3F, 0x00, 0x3F, 0x00, 0x1B, 0x63, 
  0x7F, 0x63, 0x7F, 0x63, 0x63, 0x7F, 0x7F, 0x7F, 0x7F, 0x63, 0x00, 0x63, 
  0x00, 0x63, 0x00, 0x00, 0x00, 0x00, 0x00, 0x00, };
